<?xml version="1.0" encoding="UTF-8"?>
<!DOCTYPE svg PUBLIC "-//W3C//DTD SVG 1.1//EN" "http://www.w3.org/Graphics/SVG/1.1/DTD/svg11.dtd">
<!-- Creator: CorelDRAW X7 -->
<svg xmlns="http://www.w3.org/2000/svg" xml:space="preserve" width="162.221mm" height="194.318mm" version="1.1" style="shape-rendering:geometricPrecision; text-rendering:geometricPrecision; image-rendering:optimizeQuality; fill-rule:evenodd; clip-rule:evenodd"
viewBox="0 0 10935 13099"
 xmlns:xlink="http://www.w3.org/1999/xlink">
 <defs>
  <style type="text/css">
   <![CDATA[
    .fil0 {fill:none}
    .fil18 {fill:#1DB889;fill-rule:nonzero}
    .fil16 {fill:#3A8AC5;fill-rule:nonzero}
    .fil9 {fill:#67376B;fill-rule:nonzero}
    .fil8 {fill:#9FB8C8;fill-rule:nonzero}
    .fil20 {fill:#BB787D;fill-rule:nonzero}
    .fil27 {fill:#BEDE85;fill-rule:nonzero}
    .fil7 {fill:#EC4977;fill-rule:nonzero}
    .fil15 {fill:#F0BFBF;fill-rule:nonzero}
    .fil3 {fill:#F8A0A7;fill-rule:nonzero}
    .fil12 {fill:#F9FCFC;fill-rule:nonzero}
    .fil26 {fill:#FEFEFE;fill-rule:nonzero}
    .fil19 {fill:white;fill-rule:nonzero}
    .fil1 {fill:#9FB8C8;fill-rule:nonzero;fill-opacity:0.258824}
    .fil17 {fill:#F0BFBF;fill-rule:nonzero;fill-opacity:0.321569}
    .fil10 {fill:#F8A0A7;fill-rule:nonzero;fill-opacity:0.321569}
    .fil11 {fill:#FFBABA;fill-rule:nonzero;fill-opacity:0.321569}
    .fil21 {fill:url(#id0);fill-rule:nonzero}
    .fil25 {fill:url(#id1);fill-rule:nonzero}
    .fil5 {fill:url(#id2);fill-rule:nonzero}
    .fil6 {fill:url(#id3);fill-rule:nonzero}
    .fil13 {fill:url(#id4);fill-rule:nonzero}
    .fil23 {fill:url(#id5);fill-rule:nonzero}
    .fil24 {fill:url(#id6);fill-rule:nonzero}
    .fil22 {fill:url(#id7);fill-rule:nonzero}
    .fil14 {fill:url(#id8);fill-rule:nonzero}
    .fil2 {fill:url(#id9);fill-rule:nonzero}
    .fil4 {fill:url(#id10);fill-rule:nonzero}
   ]]>
  </style>
  <linearGradient id="id0" gradientUnits="userSpaceOnUse" x1="9096.78" y1="8605.07" x2="9343.15" y2="8605.07">
   <stop offset="0" style="stop-opacity:1; stop-color:#FFD67F"/>
   <stop offset="0.2" style="stop-opacity:1; stop-color:#FFD67F"/>
   <stop offset="0.909804" style="stop-opacity:1; stop-color:#FFD369"/>
   <stop offset="1" style="stop-opacity:1; stop-color:#FFD369"/>
  </linearGradient>
  <linearGradient id="id1" gradientUnits="userSpaceOnUse" xlink:href="#id0" x1="6846.34" y1="5917.69" x2="7234.93" y2="5917.69">
  </linearGradient>
  <linearGradient id="id2" gradientUnits="userSpaceOnUse" xlink:href="#id0" x1="2333.32" y1="5729.79" x2="2989.21" y2="5729.79">
  </linearGradient>
  <linearGradient id="id3" gradientUnits="userSpaceOnUse" xlink:href="#id0" x1="2618.88" y1="5668.99" x2="3302.43" y2="5668.99">
  </linearGradient>
  <linearGradient id="id4" gradientUnits="userSpaceOnUse" xlink:href="#id0" x1="1725.51" y1="6117.26" x2="2098.43" y2="6117.26">
  </linearGradient>
  <linearGradient id="id5" gradientUnits="userSpaceOnUse" xlink:href="#id0" x1="6170.54" y1="5898.38" x2="6816.39" y2="5898.38">
  </linearGradient>
  <linearGradient id="id6" gradientUnits="userSpaceOnUse" xlink:href="#id0" x1="6439.8" y1="6041.64" x2="7103.24" y2="6041.64">
  </linearGradient>
  <linearGradient id="id7" gradientUnits="userSpaceOnUse" xlink:href="#id0" x1="8691.03" y1="8546.78" x2="9067.28" y2="8546.78">
  </linearGradient>
  <linearGradient id="id8" gradientUnits="userSpaceOnUse" xlink:href="#id0" x1="2311.51" y1="6147.06" x2="2696.78" y2="6147.06">
  </linearGradient>
  <linearGradient id="id9" gradientUnits="userSpaceOnUse" x1="676.132" y1="6368.72" x2="10271.1" y2="6368.72">
   <stop offset="0" style="stop-opacity:1; stop-color:#FFF1D6"/>
   <stop offset="0.2" style="stop-opacity:1; stop-color:#FFF1D6"/>
   <stop offset="0.909804" style="stop-opacity:1; stop-color:#FFEECC"/>
   <stop offset="1" style="stop-opacity:1; stop-color:#FFEECC"/>
  </linearGradient>
  <linearGradient id="id10" gradientUnits="userSpaceOnUse" xlink:href="#id0" x1="1369.11" y1="6082.29" x2="2186.41" y2="6082.29">
  </linearGradient>
 </defs>
 <g id="Layer_x0020_1">
  <metadata id="CorelCorpID_0Corel-Layer"/>
  <g id="_1905646084976">
   <path class="fil0" d="M0 0l10920 0c8,0 15,7 15,15l0 13084 -10935 0 0 -13099z"/>
   <g>
    <path class="fil1" d="M10029 8605c0,185 -2096,335 -4683,335 -2586,0 -4682,-150 -4682,-335 0,-185 2096,-335 4682,-335 2587,0 4683,150 4683,335z"/>
    <path class="fil2" d="M4615 4576c-185,229 -254,528 -398,785 -201,361 -546,627 -925,792 -378,166 -790,239 -1201,281 -264,28 -533,44 -783,131 -251,86 -488,256 -584,503 -85,216 -51,468 58,674 109,205 286,369 481,495 499,325 1137,426 1712,270 417,-113 790,-350 1194,-503 464,-176 984,-237 1456,-87 326,104 615,303 941,406 330,103 691,101 1019,-4 156,-50 309,-126 413,-252 104,-126 151,-309 83,-458 -17,-37 -41,-73 -44,-114 -3,-57 37,-108 79,-149 206,-200 509,-297 793,-254 313,48 614,252 921,174 359,-92 516,-553 407,-907 -37,-122 -103,-242 -210,-312 -197,-128 -453,-53 -685,-15 -603,99 -1277,-134 -1604,-651 -74,-117 -129,-245 -205,-360 -293,-442 -877,-626 -1359,-781 -505,-162 -1206,-99 -1559,336z"/>
    <path class="fil3" d="M1487 6884c-1,6 -2,12 -4,19 -2,9 -3,31 -11,38 -1,0 -22,12 -20,4 -11,51 -48,1 -58,-21 -21,-47 -36,-125 -30,-177 5,-45 18,-135 82,-127 86,10 94,148 103,212 -27,-2 -38,-24 -55,-41 -5,19 -4,73 -7,93z"/>
    <path class="fil4" d="M2186 5737l-181 57 -302 321 -167 589c0,0 -170,0 -167,-42 3,-42 120,-709 120,-709l419 -493 278 277z"/>
    <path class="fil5" d="M2989 5716l-343 -175c0,0 -160,-86 -225,-20l-87 91c-8,16 50,111 66,119l519 232c15,-84 38,-167 70,-247z"/>
    <path class="fil3" d="M3256 5200c2,-5 5,-11 7,-16 4,-9 10,-29 19,-33 1,0 23,-6 19,0 21,-45 45,10 49,32 10,47 7,122 -9,169 -14,40 -45,120 -102,100 -77,-28 -55,-156 -51,-217 25,8 30,30 42,49 9,-17 20,-66 26,-84z"/>
    <path class="fil6" d="M2619 5804c31,39 270,163 318,177 51,15 104,-9 127,-57 75,-161 229,-470 238,-498 11,-38 -145,-74 -145,-74l-276 508 -262 -56z"/>
    <g>
     <g>
      <path class="fil7" d="M6757 7612l0 951c0,39 17,71 37,71 20,0 36,-32 36,-71l0 -951 -73 0z"/>
      <path class="fil8" d="M6854 7734l0 -690c0,-34 -27,-61 -60,-61 -34,0 -61,27 -61,61l0 690 121 0z"/>
     </g>
     <path class="fil7" d="M7099 7128l-635 0c-46,0 -83,-37 -83,-82l0 -92c0,-45 37,-82 83,-82l635 0c46,0 83,37 83,82l0 92c0,45 -37,82 -83,82z"/>
     <g>
      <path class="fil9" d="M7010 8675c-1,-46 -39,-83 -84,-83l-289 0c-46,0 -83,37 -84,83l457 0z"/>
     </g>
     <path class="fil10" d="M7182 7000c0,71 -38,128 -85,128l-632 0c-46,0 -84,-57 -84,-128l801 0z"/>
    </g>
    <g>
     <g>
      <path class="fil7" d="M5329 7612l0 951c0,39 16,71 36,71 20,0 37,-32 37,-71l0 -951 -73 0z"/>
      <path class="fil8" d="M5426 7734l0 -690c0,-34 -27,-61 -61,-61 -33,0 -60,27 -60,61l0 690 121 0z"/>
     </g>
     <path class="fil7" d="M5671 7128l-636 0c-45,0 -83,-37 -83,-82l0 -92c0,-45 38,-82 83,-82l636 0c45,0 83,37 83,82l0 92c0,45 -38,82 -83,82z"/>
     <g>
      <path class="fil9" d="M5582 8675c-1,-46 -39,-83 -85,-83l-288 0c-46,0 -84,37 -85,83l458 0z"/>
     </g>
     <path class="fil10" d="M5754 7000c0,71 -38,128 -85,128l-632 0c-46,0 -85,-57 -85,-128l802 0z"/>
    </g>
    <g>
     <g>
      <g>
       <path class="fil9" d="M2332 8442c67,17 90,14 160,6l120 87c0,0 138,94 126,131 -11,38 -382,-61 -382,-61 0,0 -62,-16 -42,-81 12,-40 24,-47 18,-82z"/>
      </g>
     </g>
     <g>
      <g>
       <path class="fil9" d="M2044 8465c-69,11 -92,5 -160,-10l-128 76c0,0 -146,80 -139,118 8,38 387,-24 387,-24 0,0 63,-10 49,-77 -8,-41 -19,-49 -9,-83z"/>
      </g>
     </g>
     <path class="fil7" d="M2582 6580l-30 1925c0,0 -217,21 -236,-40 -18,-60 -78,-1808 -78,-1808l344 -77z"/>
     <path class="fil11" d="M2575 6636l-23 1869c0,0 -217,21 -236,-40 -18,-60 -79,-1782 -79,-1782l338 -47z"/>
     <path class="fil7" d="M1872 6631l-62 1838c0,0 235,55 260,15 25,-39 172,-1515 172,-1515l89 -125 224 -262 -683 49z"/>
    </g>
    <g>
     <g>
      <path class="fil12" d="M1930 6605c80,77 194,119 305,111 84,-5 215,-46 262,-123 35,-60 17,-173 18,-239 3,-229 -14,-458 -52,-683 -10,-60 -22,-120 -53,-171 0,0 -57,-50 -157,-44 -99,6 -234,-2 -234,-2l-152 776 63 375z"/>
      <path class="fil13" d="M2098 5459l-57 1253c0,0 -243,116 -304,61 -61,-56 139,-1315 139,-1315 0,0 95,-25 222,1z"/>
      <path class="fil14" d="M2312 5464l156 1370c0,0 203,-56 226,-150 23,-93 -130,-1117 -145,-1151 -16,-34 -206,-87 -237,-69z"/>
     </g>
     <g>
      <g>
       <g>
        <path class="fil3" d="M1947 5106c-14,6 -21,24 -23,40 -4,48 27,97 73,112 14,4 31,5 40,-6 10,-11 6,-28 1,-42 -10,-27 -50,-122 -91,-104z"/>
        <g>
         <g>
          <g>
           <path class="fil9" d="M1939 5145c0,-1 8,0 18,6 10,5 23,17 31,32 9,16 12,32 14,43 2,12 2,19 1,19 0,0 -2,-7 -4,-18 -3,-11 -7,-26 -15,-41 -8,-15 -19,-26 -29,-32 -9,-7 -16,-8 -16,-9z"/>
          </g>
         </g>
         <g>
          <g>
           <path class="fil9" d="M1988 5236c-1,1 -3,-2 -6,-7 -3,-5 -8,-12 -10,-21 -3,-10 -2,-19 0,-24 2,-6 5,-9 6,-9 0,1 -1,4 -2,10 -2,5 -2,13 1,21 2,9 5,16 8,21 2,6 4,9 3,9z"/>
          </g>
         </g>
        </g>
       </g>
       <g>
        <path class="fil3" d="M2444 5110c15,7 21,24 22,40 4,48 -29,97 -74,111 -14,4 -31,5 -41,-6 -9,-12 -5,-29 0,-42 11,-27 53,-122 93,-103z"/>
        <g>
         <g>
          <g>
           <path class="fil9" d="M2451 5149c0,0 -7,0 -18,6 -10,5 -23,16 -31,32 -9,16 -13,31 -15,43 -2,11 -2,18 -2,18 1,0 3,-7 5,-18 3,-11 8,-26 16,-41 8,-15 20,-25 29,-31 9,-6 16,-8 16,-9z"/>
          </g>
         </g>
         <g>
          <g>
           <path class="fil9" d="M2401 5240c1,0 3,-2 6,-7 4,-5 8,-13 11,-22 2,-9 2,-18 0,-24 -2,-6 -5,-8 -6,-8 0,0 1,4 2,9 1,6 1,14 -1,22 -2,8 -6,16 -9,21 -2,5 -4,9 -3,9z"/>
          </g>
         </g>
        </g>
       </g>
       <path class="fil3" d="M2283 5349c7,2 10,99 11,108 6,57 -2,102 -75,100 -122,-2 -100,-176 -108,-260 0,0 172,52 172,52z"/>
       <path class="fil10" d="M2129 5456l-18 -159 172 52 7 125c-55,9 -108,0 -161,-18z"/>
       <path class="fil3" d="M2389 5249c-5,45 -26,88 -59,119 -61,59 -135,60 -209,28 -62,-26 -91,-59 -99,-126 -9,-69 -28,-138 -1,-205 14,-37 40,-66 68,-86 29,-20 60,-32 91,-44 53,-20 132,-46 175,17 49,73 41,210 34,293 0,1 0,2 0,4z"/>
       <g>
        <path class="fil9" d="M2010 5106c1,11 9,19 8,33 0,7 -7,11 -13,12 -7,0 -13,-3 -19,-6 -55,-36 -28,-122 -11,-173 19,-57 54,-106 107,-137 69,-41 159,-43 231,-7 72,36 124,110 132,190 5,38 -1,99 -29,128 -11,11 -32,15 -42,3 -11,-11 -7,-28 -5,-43 4,-23 -20,-38 -8,-56 -49,4 -98,-31 -109,-78 -4,25 -40,36 -57,18 -23,-10 -46,14 -57,36 -7,14 -16,32 -30,41 -19,13 -36,3 -57,5 -15,1 -25,4 -34,16 -6,7 -7,13 -7,18z"/>
       </g>
       <g>
        <g>
         <g>
          <path class="fil9" d="M2083 5094c-1,-1 0,-5 7,-11 6,-6 17,-12 32,-15 14,-4 28,-4 38,-2 9,2 14,5 14,6 -2,3 -23,0 -48,6 -24,6 -39,18 -43,16z"/>
         </g>
        </g>
        <g>
         <g>
          <path class="fil9" d="M2250 5076c1,-1 7,-2 18,-2 11,1 25,3 39,8 14,5 24,11 29,16 5,6 4,10 1,10 -3,0 -7,-2 -14,-5 -6,-3 -16,-7 -28,-11 -23,-9 -45,-13 -45,-16z"/>
         </g>
        </g>
        <g>
         <path class="fil9" d="M2211 5131c2,12 3,23 4,35l4 35 1 8 0 4c0,1 0,2 1,3 0,1 1,3 3,3 1,1 2,1 3,2 2,0 4,1 6,3 3,3 5,7 5,11 0,4 -1,7 -3,10 -4,6 -9,9 -15,12 4,-5 8,-10 9,-15 2,-4 0,-10 -2,-11 -1,0 -1,0 -2,0 -2,-1 -4,-1 -6,-2 -3,-1 -7,-4 -9,-8 -1,-2 -1,-4 -2,-6l0 -4 -1 -9c-1,-12 -2,-24 -1,-36 1,-12 2,-24 5,-35z"/>
        </g>
        <g>
         <g>
          <path class="fil9" d="M2169 5168c-5,-6 -11,-11 -18,-13 -7,-2 -14,-2 -20,-1 -7,1 -14,3 -21,6 -6,3 -13,6 -18,12l-1 0c-1,1 -2,1 -3,0 -3,-2 -1,-6 3,-4l-4 0c4,-7 11,-14 18,-18 7,-5 16,-7 24,-8 9,-1 18,1 26,5 8,5 13,13 14,21z"/>
         </g>
        </g>
        <g>
         <g>
          <path class="fil9" d="M2249 5167c5,-7 11,-11 17,-13 7,-3 14,-3 21,-3 7,1 14,3 21,5 6,3 13,7 19,12l0 0c1,1 2,1 3,0 3,-2 1,-6 -3,-4l4 0c-4,-7 -11,-13 -18,-18 -8,-4 -16,-6 -25,-7 -9,0 -18,2 -26,7 -7,5 -12,13 -13,21z"/>
         </g>
        </g>
        <g>
         <path class="fil9" d="M2289 5279l-145 10c0,0 -7,58 53,62 81,6 92,-72 92,-72z"/>
        </g>
        <path class="fil7" d="M2209 5317c-20,-7 -41,-6 -59,4 -1,0 -1,0 -1,0 6,15 20,28 48,30 19,2 34,-2 46,-7 -9,-12 -19,-22 -34,-27z"/>
       </g>
      </g>
     </g>
    </g>
    <g>
     <g>
      <g>
       <path class="fil9" d="M3464 8469c-67,21 -91,19 -161,15l-117 95c0,0 -134,102 -121,139 14,38 383,-82 383,-82 0,0 62,-20 38,-86 -14,-39 -27,-46 -22,-81z"/>
      </g>
     </g>
     <g>
      <g>
       <path class="fil9" d="M3780 8479c69,15 92,11 162,0l125 84c0,0 143,90 133,128 -11,38 -389,-47 -389,-47 0,0 -64,-14 -46,-81 11,-41 23,-49 15,-84z"/>
      </g>
     </g>
     <path class="fil15" d="M2964 4501c-1,-7 -3,-13 -5,-19 -3,-9 -6,-31 -15,-36 -1,-1 -24,-10 -21,-3 -17,-49 -48,5 -55,28 -16,49 -22,128 -11,179 10,44 33,132 95,117 84,-19 77,-157 80,-221 -27,4 -35,28 -50,46 -8,-19 -13,-72 -18,-91z"/>
     <path class="fil16" d="M3784 5565l-187 -37 -334 -286 -230 -568c0,0 -169,19 -162,60 8,41 196,692 196,692l470 444 247 -305z"/>
     <polygon class="fil17" points="3526,5859 3586,5528 3172,5373 2871,4734 3067,5426 "/>
     <path class="fil18" d="M3350 6541l-87 1948c0,0 218,34 241,-26 22,-60 188,-1824 188,-1824l-342 -98z"/>
     <path class="fil17" d="M3353 6597l-90 1892c0,0 218,34 241,-26 22,-60 188,-1798 188,-1798l-339 -68z"/>
     <path class="fil18" d="M4064 6635l-49 1862c0,0 -240,41 -263,0 -22,-41 -83,-1542 -83,-1542l-82 -132 -211 -278 688 90z"/>
     <path class="fil7" d="M4020 6384c-12,98 -29,196 -17,294 -152,55 -323,56 -476,4 -52,-17 -104,-43 -135,-88 -44,-66 -30,-154 -14,-232 48,-228 102,-455 161,-681 13,-48 27,-117 59,-156 52,-64 140,-62 218,-55 51,4 128,-43 169,-9 55,45 54,201 58,263 6,104 8,207 5,310 -3,117 -13,234 -28,350z"/>
     <polygon class="fil16" points="4256,5627 4433,6296 4091,6597 "/>
     <polygon class="fil17" points="4256,5627 4433,6296 4091,6597 "/>
     <g>
      <g>
       <path class="fil15" d="M4094 5047c15,7 22,25 23,41 5,50 -29,100 -76,115 -14,4 -32,5 -41,-6 -10,-12 -6,-29 -1,-44 11,-27 53,-125 95,-106z"/>
       <g>
        <g>
         <g>
          <path class="fil9" d="M4102 5087c0,0 -8,0 -19,6 -10,6 -23,17 -32,34 -9,16 -13,32 -15,44 -2,11 -2,19 -1,19 1,0 2,-7 5,-19 3,-11 7,-27 15,-42 9,-15 20,-27 30,-33 10,-6 17,-8 17,-9z"/>
         </g>
        </g>
        <g>
         <g>
          <path class="fil9" d="M4051 5181c0,1 3,-2 6,-7 4,-6 8,-13 11,-22 2,-10 2,-19 -1,-25 -2,-6 -5,-9 -5,-9 -1,1 1,4 2,10 1,6 1,14 -1,22 -3,9 -6,16 -9,22 -2,5 -4,9 -3,9z"/>
         </g>
        </g>
       </g>
      </g>
      <g>
       <path class="fil15" d="M3582 5047c-15,7 -22,25 -23,41 -5,50 29,100 76,115 14,4 32,5 41,-6 10,-12 6,-29 0,-44 -10,-27 -52,-125 -94,-106z"/>
       <g>
        <g>
         <g>
          <path class="fil9" d="M3574 5087c0,0 8,0 19,6 10,6 23,17 32,34 9,16 13,32 15,44 2,11 2,19 1,19 -1,0 -2,-7 -5,-19 -3,-11 -7,-27 -15,-42 -9,-15 -20,-27 -30,-33 -10,-6 -17,-8 -17,-9z"/>
         </g>
        </g>
        <g>
         <g>
          <path class="fil9" d="M3625 5181c0,1 -3,-2 -6,-7 -4,-6 -8,-13 -11,-22 -2,-10 -2,-19 0,-25 3,-6 6,-9 6,-9 1,1 -1,4 -2,10 -1,6 -1,14 1,22 2,9 6,16 9,22 2,5 4,9 3,9z"/>
         </g>
        </g>
       </g>
      </g>
      <path class="fil15" d="M3746 5295l-9 135c-3,38 27,70 65,70l32 0c33,0 61,-25 65,-58l24 -200 -177 53z"/>
      <path class="fil17" d="M3904 5407l19 -165 -177 53 -9 129c57,9 112,0 167,-17z"/>
      <path class="fil15" d="M3638 5190c4,47 25,92 59,124 62,61 139,63 215,31 64,-27 95,-61 104,-129 9,-72 29,-142 2,-212 -14,-38 -40,-68 -69,-89 -29,-21 -61,-34 -93,-46 -55,-21 -136,-48 -181,16 -51,74 -44,216 -38,302 0,1 0,2 1,3z"/>
      <g>
       <g>
        <path class="fil9" d="M3952 5182c27,-16 23,-92 47,-102 8,-4 17,3 20,10 3,8 2,17 1,25 -7,49 22,106 8,154 -14,53 -92,96 -140,111 -62,19 -130,15 -188,-13 -26,-13 -51,-30 -66,-54 -17,-27 -32,-99 1,-119 -11,-24 -7,-53 10,-72 -12,-21 -12,-48 0,-68 22,27 13,79 31,108 24,37 97,43 136,43 38,-1 106,-2 140,-23z"/>
       </g>
       <g>
        <g>
         <path class="fil9" d="M3954 5034c2,-1 0,-6 -7,-12 -6,-6 -18,-12 -33,-16 -14,-4 -29,-4 -39,-2 -10,2 -15,5 -14,6 1,3 23,1 48,7 26,6 41,19 45,17z"/>
        </g>
       </g>
       <g>
        <g>
         <path class="fil9" d="M3782 5014c0,-2 -7,-3 -18,-2 -11,0 -26,3 -41,7 -14,5 -24,11 -30,17 -5,5 -4,10 -1,10 3,0 7,-2 14,-5 7,-3 18,-8 30,-12 23,-8 47,-12 46,-15z"/>
        </g>
       </g>
       <g>
        <g>
         <g>
          <path class="fil9" d="M3744 5115c-8,0 -15,-10 -14,-22 1,-12 10,-22 18,-22 7,0 11,10 10,22 -1,12 -6,22 -14,22z"/>
         </g>
        </g>
       </g>
       <g>
        <g>
         <g>
          <path class="fil9" d="M3911 5125c-7,1 -16,-8 -17,-20 -1,-12 6,-23 13,-24 8,-1 13,8 14,20 1,12 -2,22 -10,24z"/>
         </g>
        </g>
       </g>
       <g>
        <path class="fil9" d="M3822 5070c-2,13 -4,25 -5,37l-4 35 -1 9 0 5c0,0 0,1 -1,2 0,1 -2,3 -3,4 -1,0 -2,1 -3,1 -2,0 -5,1 -6,3 -4,3 -5,7 -5,11 0,4 1,8 2,11 4,6 10,9 15,12 -4,-5 -8,-10 -9,-15 -2,-4 0,-10 3,-11 0,-1 1,-1 2,-1 1,0 4,-1 5,-1 4,-2 8,-5 10,-9 1,-1 2,-4 2,-6l1 -4 1 -10c1,-12 1,-24 1,-36 -1,-12 -2,-25 -5,-37z"/>
       </g>
       <g>
        <path class="fil19" d="M3782 5255c1,-1 4,2 10,5 5,3 14,7 25,8 11,1 22,-1 29,-2 8,-2 12,-4 13,-3 1,0 -3,4 -11,7 -7,3 -20,6 -33,5 -13,-2 -23,-7 -28,-11 -5,-5 -6,-9 -5,-9z"/>
       </g>
      </g>
      <g>
       <path class="fil9" d="M3959 4968c-14,3 -30,3 -45,-1 11,-12 -3,-35 -18,-31 -32,38 -87,55 -135,42 11,-14 -4,-39 -22,-36 -10,19 -19,39 -28,58 -59,-5 -110,-60 -110,-119 0,-144 204,-141 302,-130 70,7 157,43 144,129 -6,44 -45,80 -88,88z"/>
      </g>
      <g>
       <path class="fil9" d="M3995 4815c36,5 62,39 75,73 19,53 15,113 -9,163 -6,11 -12,21 -18,32 -11,18 -35,73 -54,36 -6,-11 3,-45 3,-59 -1,-20 -2,-39 -6,-59 -8,-49 -32,-97 -73,-125 -37,-25 -86,-31 -128,-17 -42,14 -77,47 -95,88 -28,66 -10,145 -37,211 13,-32 -29,-71 -45,-95 -19,-28 -26,-64 -26,-97 2,-50 15,-114 47,-153 29,-35 119,-20 147,11l219 -9z"/>
      </g>
     </g>
     <path class="fil17" d="M3649 5510c-5,-29 18,-55 47,-51 60,7 119,10 179,7 26,-2 75,-17 98,-10 25,8 26,25 23,55 -1,20 -9,39 -24,52 -14,12 -34,15 -53,17 -79,9 -172,13 -243,-7 -28,-8 -22,-34 -27,-62 0,-1 0,-1 0,-1z"/>
     <path class="fil16" d="M3985 5461l271 166 -143 1407c0,0 -161,-61 -177,-113 -15,-53 49,-1460 49,-1460z"/>
     <path class="fil16" d="M3672 5480l-255 1294c0,0 -41,120 -120,132 -79,11 165,-1381 165,-1381l210 -45z"/>
     <path class="fil7" d="M3654 5451c-5,-29 18,-55 47,-51 60,7 120,10 179,7 26,-2 75,-17 98,-10 25,8 26,25 23,55 -1,20 -9,39 -24,52 -14,12 -34,15 -53,17 -79,9 -172,13 -243,-7 -28,-8 -22,-34 -27,-62 0,-1 0,-1 0,-1z"/>
     <path class="fil17" d="M3782 6478c25,3 51,3 74,9 23,6 40,22 29,35 -10,12 -39,14 -64,14 -27,0 -54,0 -82,-2 -64,-2 -134,-11 -175,-39 -25,-18 -36,-42 -27,-65 5,-13 23,-37 49,-42 37,-6 39,10 53,25 30,32 77,58 143,65z"/>
    </g>
    <g>
     <path class="fil20" d="M9098 5044c77,10 148,56 194,119 52,71 28,158 88,227 38,43 92,68 139,100 70,48 130,121 135,206 2,33 -5,67 -1,100 10,70 69,124 89,192 27,93 -26,194 -104,252 16,-29 15,-67 -4,-94 -20,71 -86,123 -158,140 -72,17 -148,3 -217,-25 -5,-2 -12,-5 -14,-10 -5,-8 0,-17 2,-25 12,-39 -11,-83 -45,-106 -35,-22 -77,-28 -118,-32 -30,-2 -60,-3 -88,-14 -28,-11 -53,-35 -56,-65 -4,-34 21,-65 20,-99 0,-6 -1,-13 -6,-17 -6,-5 -15,-3 -23,-1 -60,19 -112,57 -169,85 -56,28 -122,47 -182,28 -19,-7 -38,-18 -50,-36 -15,-23 -14,-53 -9,-80 21,-111 100,-199 170,-288 69,-88 135,-193 122,-305 -11,-87 -3,-137 70,-193 61,-46 139,-70 215,-59z"/>
     <path class="fil3" d="M8223 5482c3,-6 11,-8 17,-5 6,2 11,8 14,13 10,13 74,91 69,104 4,-10 1,-21 3,-32 9,-71 46,51 49,59 16,40 44,74 60,116 14,37 25,78 38,113 5,15 51,116 37,129 98,-65 196,-130 293,-194 25,-16 49,-33 78,-40 63,-17 126,12 85,81 -44,72 -106,164 -178,210 -84,53 -193,84 -284,124 -16,6 -33,13 -50,10 -33,-6 -46,-45 -53,-78 -26,-117 -51,-233 -76,-349 -54,-31 -105,-58 -124,-132 -3,-13 -5,-27 -2,-41 4,-13 14,-25 28,-28 -2,-17 -3,-33 -5,-50 0,-3 -1,-7 1,-10z"/>
     <path class="fil7" d="M8881 5745c-29,7 -53,24 -78,40 -87,57 -174,115 -261,172 24,53 44,108 63,163 64,-24 129,-49 183,-84 72,-46 134,-138 178,-210 41,-69 -22,-98 -85,-81z"/>
     <path class="fil7" d="M8717 6017c-14,32 -21,71 -7,103 27,62 67,87 78,161 11,73 2,149 -26,218 -4,10 -8,20 -8,31 1,14 10,26 21,36 47,44 117,48 181,50 62,3 88,-15 139,-39 55,-25 122,-30 181,-56 9,-4 19,-9 23,-18 5,-13 -3,-27 -10,-40 -46,-83 -26,-186 4,-276 18,-52 39,-103 52,-156 14,-54 9,-104 31,-158 7,-18 -3,-38 -13,-54 -42,-71 -125,-76 -201,-80 -60,-3 -117,-2 -178,-9 -16,-2 -32,-4 -48,-3 -102,6 -117,100 -152,175 -19,40 -48,75 -67,115z"/>
     <g>
      <path class="fil3" d="M9094 5525c25,0 41,108 43,124 4,29 -2,70 7,97 -31,23 -67,40 -106,43 -24,2 -72,-4 -87,-27 -19,-28 13,-49 17,-80 3,-25 -8,-35 -19,-58 -15,-29 -30,-59 -44,-88 0,0 188,-11 189,-11z"/>
      <path class="fil10" d="M8981 5687l-76 -151 189 -11 52 120c-51,29 -107,40 -165,42z"/>
      <path class="fil3" d="M8785 5486c5,36 22,71 42,99 20,29 45,38 75,48 95,31 230,13 268,-111 17,11 39,-5 45,-26 6,-20 1,-37 1,-57 0,-17 2,-32 1,-49 -3,-40 -7,-82 -24,-118 -17,-38 -46,-67 -78,-86 -32,-20 -66,-31 -100,-42 -59,-18 -146,-40 -189,27 -26,39 -15,115 -24,162 -10,50 -24,100 -17,153z"/>
      <g>
       <path class="fil3" d="M9266 5372c16,9 21,29 21,48 -1,53 -42,103 -94,114 -16,4 -35,2 -44,-11 -10,-13 -3,-32 4,-46 15,-29 71,-130 113,-105z"/>
       <g>
        <g>
         <g>
          <path class="fil9" d="M9270 5416c0,0 -8,0 -20,5 -12,5 -27,16 -39,32 -11,17 -17,34 -20,46 -3,13 -5,20 -4,21 1,0 3,-8 8,-20 4,-12 10,-28 21,-44 11,-15 24,-26 35,-32 12,-5 19,-7 19,-8z"/>
         </g>
        </g>
        <g>
         <g>
          <path class="fil9" d="M9205 5512c1,0 4,-2 8,-7 4,-6 10,-13 14,-23 4,-10 4,-20 2,-27 -1,-6 -4,-10 -5,-9 -1,0 1,4 1,10 1,6 0,15 -3,24 -4,9 -9,17 -12,22 -3,6 -5,10 -5,10z"/>
         </g>
        </g>
       </g>
      </g>
      <g>
       <g>
        <path class="fil20" d="M9097 5379c2,-1 0,-6 -7,-13 -6,-6 -19,-14 -35,-19 -16,-4 -31,-5 -42,-3 -11,1 -16,4 -16,6 2,4 26,1 53,9 27,8 43,22 47,20z"/>
       </g>
       <g>
        <path class="fil20" d="M8897 5338c0,-2 -4,-5 -13,-6 -8,-2 -19,-3 -31,-1 -12,3 -21,7 -27,11 -5,5 -5,10 -3,11 2,1 6,-1 11,-3 6,-2 15,-4 25,-6 20,-3 38,-3 38,-6z"/>
       </g>
       <g>
        <path class="fil9" d="M8928 5362c3,13 4,26 4,39 0,13 -1,26 -3,40l-1 9 -1 3c0,1 0,2 0,3 -1,2 -2,4 -3,6 -3,3 -6,7 -10,8 -2,1 -5,2 -6,2 -1,0 -2,0 -3,1 -2,1 -4,7 -3,12 1,6 6,11 9,16 -5,-3 -11,-7 -15,-13 -2,-4 -3,-8 -3,-12 0,-4 2,-8 6,-12 2,-2 4,-3 7,-3 1,0 2,-1 3,-1 1,-1 3,-3 4,-5 0,-1 1,-2 1,-3 0,0 0,-1 0,-1l1 -3 1 -9 5 -39c2,-12 4,-25 7,-38z"/>
       </g>
       <g>
        <g>
         <g>
          <path class="fil9" d="M9020 5443c7,1 15,-7 17,-18 1,-11 -6,-22 -13,-23 -7,-1 -11,8 -12,19 -2,11 1,21 8,22z"/>
         </g>
        </g>
        <g>
         <path class="fil9" d="M9025 5412c7,-1 14,-6 17,-12 3,8 -3,18 -11,19 8,3 17,2 24,-3 -7,9 -20,13 -30,8l0 -12z"/>
        </g>
       </g>
       <g>
        <g>
         <g>
          <path class="fil9" d="M8871 5437c-7,1 -14,-7 -15,-19 0,-11 8,-21 14,-21 7,-1 12,8 12,19 0,11 -4,21 -11,21z"/>
         </g>
        </g>
        <g>
         <path class="fil9" d="M8869 5406c-7,-2 -13,-7 -16,-14 -3,8 1,18 10,21 -8,2 -18,0 -24,-6 6,10 18,15 29,11l1 -12z"/>
        </g>
       </g>
       <g>
        <path class="fil9" d="M8906 5526l137 6c0,0 7,55 -48,60 -77,7 -89,-66 -89,-66z"/>
       </g>
       <path class="fil7" d="M8982 5560c19,-7 38,-6 56,3 0,0 1,0 1,0 -6,13 -18,27 -44,29 -18,2 -32,-1 -44,-6 8,-11 17,-20 31,-26z"/>
      </g>
     </g>
     <g>
      <path class="fil3" d="M9280 6623c5,5 9,11 13,17 26,40 30,90 33,138 8,116 16,232 7,347 -6,94 -23,186 -32,280 -21,230 28,449 36,677 5,139 -19,307 -50,444 0,0 -29,18 -87,-14 -26,-15 -63,-503 -67,-679 -101,-449 87,-899 87,-899l-179 8 8 822c0,0 -10,210 -13,700 -23,4 -118,42 -130,4 -12,-39 -81,-814 -81,-814 0,0 36,-1044 11,-1040 -118,17 345,-99 444,9z"/>
      <path class="fil16" d="M8857 8374c-2,-29 -3,-58 -4,-87 -14,-280 -47,-560 -60,-841 -8,-158 -35,-315 -43,-473 -1,-24 7,-459 43,-448 166,53 353,34 504,-52 104,158 143,315 115,506 -24,161 -60,316 -76,478 -9,97 16,193 21,290 3,53 0,638 -15,639 -110,5 -110,5 -198,-25 -6,-88 -103,-1419 -103,-1419l20 1457c-105,2 -105,2 -204,-25z"/>
      <path class="fil21" d="M9318 8695c-52,51 -185,101 -216,40 -13,-25 1,-55 16,-79 42,-70 84,-121 63,-209 44,4 88,8 132,12 -7,-1 7,73 9,81 11,44 32,83 14,129 -3,9 -10,17 -18,26z"/>
      <g>
       <path class="fil22" d="M9046 8441c-59,16 -79,14 -141,8l-104 79c0,0 -120,85 -109,118 10,32 336,-61 336,-61 0,0 54,-15 35,-73 -11,-34 -22,-41 -17,-71z"/>
      </g>
      <path class="fil10" d="M9024 6948c11,-14 9,-28 -4,-39 -30,-26 -60,-52 -90,-77 0,36 11,71 20,106 51,224 -2,465 9,692 11,252 6,504 -22,755 44,6 81,8 124,14 -12,-237 -12,-533 -10,-768 -11,-188 -19,-325 -7,-513 4,-70 -17,-184 -17,-184l-3 14z"/>
     </g>
     <path class="fil7" d="M9385 5849c-23,-33 -81,-34 -108,-2 -36,42 -66,140 -35,366l4 28c8,67 77,114 156,106l35 -3c0,0 30,-375 -52,-495z"/>
     <path class="fil20" d="M8841 5084c-38,19 -70,51 -88,90 -15,32 -21,72 -2,102 19,30 68,39 90,11 7,-9 12,-22 23,-24 -2,25 18,50 43,53 25,4 50,-15 54,-40 4,25 18,52 42,60 25,8 57,-14 50,-39 13,11 20,27 29,41 9,14 21,28 37,32 16,3 36,-8 35,-25 2,22 10,42 23,59 8,11 20,21 33,18 15,-2 23,-19 26,-35 20,-85 -14,-179 -79,-238 -64,-59 -156,-86 -243,-78l-73 13z"/>
     <path class="fil19" d="M8919 5685c-4,-2 -7,-4 -11,-2 -2,1 -3,3 -4,5 -8,15 -15,29 -21,45 -3,5 -5,10 -4,16 0,6 3,12 6,17 17,27 45,44 75,53 31,8 63,7 94,2 45,-8 90,-25 125,-55 6,-4 11,-10 13,-17 0,-4 -1,-8 -1,-12 -5,-23 -10,-46 -14,-68 3,16 -121,37 -134,38 -40,3 -89,-3 -124,-22z"/>
     <path class="fil3" d="M8795 6112c-1,-13 3,-26 14,-35 23,-18 91,-26 119,-22 70,10 98,80 168,92 44,7 88,16 131,28 63,18 183,46 205,120 0,0 43,92 -50,91 -18,0 -36,-5 -53,-12l-331 -150c-17,-3 -36,-6 -54,-7 -34,-1 -74,-3 -95,-7 -10,-2 -18,-8 -23,-17 -11,-20 -30,-53 -31,-81z"/>
    </g>
    <g>
     <g>
      <g>
       <path class="fil16" d="M5995 7836c-61,22 -83,21 -150,19l-103 94c0,0 -119,101 -104,136 15,34 353,-90 353,-90 0,0 57,-21 31,-82 -17,-37 -29,-43 -27,-77z"/>
      </g>
      <path class="fil18" d="M5878 7041c94,-141 371,-397 467,-490l0 0c57,-55 116,-94 179,-113 90,-27 172,63 137,154 -11,27 -24,48 -31,59 -3,4 -6,8 -62,5l-489 580c-22,-39 -123,-156 -201,-195z"/>
      <path class="fil18" d="M5852 7455c2,-97 18,-320 26,-414 85,-2 192,126 277,131l-160 688 -1 21 -163 0 21 -426z"/>
      <path class="fil10" d="M5852 7455c2,-97 18,-320 26,-414 94,-141 371,-397 467,-490l0 0c57,-55 116,-94 179,-113 90,-27 172,63 137,154 -11,27 -24,48 -31,59 -3,4 -6,8 -62,5l-424 550 -149 654 -1 21 -163 0 21 -426z"/>
     </g>
     <g>
      <g>
       <path class="fil16" d="M6207 7984c-64,28 -88,28 -158,31l-106 105c0,0 -123,114 -105,148 17,35 370,-120 370,-120 0,0 60,-26 30,-87 -19,-37 -32,-42 -31,-77z"/>
      </g>
      <path class="fil18" d="M6355 7140c-16,-13 -292,-17 -322,-25 -14,-4 77,-142 83,-150 45,-62 289,-275 329,-333 11,-15 90,-145 112,-138 0,0 104,-121 137,-120 116,1 190,154 300,110 28,-12 49,-34 75,-46 28,-13 26,-2 41,29 31,65 44,134 26,205 -17,69 -71,158 -143,186 -91,35 -630,271 -638,282z"/>
      <path class="fil18" d="M6055 8002c0,-31 -2,-61 -3,-91 -3,-170 -17,-489 -11,-660 2,-42 -10,-94 -8,-136 43,-6 139,-3 182,-4 50,-2 98,14 146,23 -31,32 -28,68 -28,91 -1,72 -3,144 -8,217 -6,79 -9,311 -27,389 -4,21 -32,235 -50,230 0,0 -193,-47 -193,-47 0,-4 0,-8 0,-12z"/>
     </g>
     <path class="fil7" d="M7106 5147c29,89 15,193 -41,268 9,-18 9,-41 0,-59 -54,85 -152,135 -251,152 -100,18 -202,8 -302,-2 1,-18 2,-35 4,-53 -13,19 -25,37 -37,56 -124,-152 -40,-483 133,-575 178,-94 434,30 494,213z"/>
     <g>
      <path class="fil20" d="M6573 5606c-52,167 -189,298 -330,395 -135,93 -286,132 -446,145 -17,1 -33,2 -49,-3 -8,-2 -116,-43 -70,3 7,7 16,12 22,20 -7,-11 -98,-8 -114,-9 -6,0 -12,0 -17,3 -5,3 -8,11 -6,16 2,3 5,4 7,6 13,8 26,16 38,24 -5,12 -2,26 6,36 7,10 18,16 30,21 94,41 154,-26 244,-41 37,-6 74,-4 112,-6 350,-18 624,-248 772,-568 4,-8 3,-25 -6,-21l-193 -21z"/>
     </g>
     <g>
      <path class="fil23" d="M6190 6098c-8,-14 -14,-28 -19,-43 130,-89 203,-189 291,-319 89,-131 161,-145 309,-132 9,-3 49,37 45,46 -54,122 -128,237 -224,331 -33,33 -305,235 -328,214 -30,-27 -55,-60 -74,-97z"/>
     </g>
     <path class="fil24" d="M7090 6099c13,89 29,266 -21,339 -86,125 -263,73 -402,50 -57,-9 -126,-33 -162,-79 45,-69 59,-157 38,-237 -5,-19 -13,-38 -28,-50 -13,-10 -30,-13 -43,-21 -36,-23 -38,-76 -24,-117 29,-82 37,-111 35,-191 -2,-78 35,-148 103,-191 131,-83 270,-16 349,100 80,119 133,256 155,397z"/>
     <path class="fil20" d="M6708 6443c-92,-23 -67,-32 -147,22 -38,25 -121,99 -168,49 -65,-70 70,-161 123,-174 62,-15 127,-7 191,-1 154,15 290,-34 358,-186 -2,4 95,62 102,70 51,58 50,18 -1,83 -97,124 -297,175 -445,140 -4,-1 -9,-2 -13,-3z"/>
     <path class="fil25" d="M7079 5680c5,7 10,14 15,21 56,80 84,164 103,257 20,99 46,193 36,296 -76,-15 -151,-29 -226,-44 -7,-1 -13,-2 -19,-6 -7,-7 -9,-18 -11,-28 -23,-158 -55,-315 -105,-467 -5,-18 -54,-139 -1,-127 44,11 87,25 128,43 19,8 39,17 55,30 9,7 17,16 25,25z"/>
     <path class="fil20" d="M6857 5444c2,27 5,54 7,80 1,18 2,42 17,55 11,11 59,9 61,24 0,6 -4,10 -7,14 -16,15 -34,30 -51,44 -38,31 -77,63 -115,95 -15,12 -36,24 -51,12 -8,-6 -10,-18 -11,-28 -8,-58 -21,-102 -52,-151 21,-11 44,-21 68,-24 -4,-23 -6,-160 -27,-166 1,0 161,45 161,45z"/>
     <path class="fil10" d="M6716 5547l-20 -148 161 45 9 116c-50,9 -100,2 -150,-13z"/>
     <path class="fil20" d="M6568 5443c13,30 36,55 60,74 24,19 48,21 75,22 89,2 199,-47 200,-162 17,5 31,-14 31,-33 1,-18 -8,-32 -13,-49 -4,-13 -7,-27 -12,-41 -12,-34 -26,-68 -49,-94 -25,-28 -56,-45 -88,-54 -32,-8 -64,-9 -96,-9 -54,-1 -133,2 -153,70 -11,39 17,100 21,143 4,44 5,91 24,133z"/>
     <g>
      <path class="fil20" d="M6947 5226c15,4 25,20 29,35 13,46 -10,99 -51,121 -13,7 -29,11 -40,2 -11,-9 -11,-27 -8,-41 5,-27 27,-127 70,-117z"/>
      <g>
       <g>
        <g>
         <path class="fil9" d="M6961 5263c0,-1 -7,1 -16,9 -9,7 -19,20 -24,37 -6,17 -7,33 -6,44 0,11 1,18 2,18 0,0 0,-7 1,-18 1,-11 2,-27 7,-43 5,-16 14,-28 22,-36 8,-7 14,-10 14,-11z"/>
        </g>
       </g>
       <g>
        <g>
         <path class="fil9" d="M6930 5360c1,0 2,-3 5,-8 2,-6 5,-13 6,-23 0,-9 -2,-18 -5,-23 -3,-5 -6,-7 -7,-7 0,1 2,4 4,9 2,5 4,12 3,21 -1,8 -3,16 -4,22 -2,5 -3,9 -2,9z"/>
        </g>
       </g>
      </g>
     </g>
     <g>
      <g>
       <path class="fil7" d="M6818 5246c2,-2 -1,-5 -9,-9 -7,-4 -19,-7 -34,-7 -15,0 -28,4 -37,7 -8,4 -12,8 -11,10 2,2 22,-6 46,-6 25,0 42,7 45,5z"/>
      </g>
      <g>
       <path class="fil7" d="M6623 5269c0,-2 -4,-3 -12,-2 -7,0 -17,3 -27,8 -9,4 -16,10 -19,16 -4,5 -3,9 -1,9 2,0 5,-2 10,-5 4,-3 11,-7 19,-11 16,-8 31,-12 30,-15z"/>
      </g>
      <g>
       <path class="fil9" d="M6658 5302c5,11 10,22 13,33 3,11 6,22 8,34l1 8 0 3c0,1 0,2 0,3 0,2 0,3 -1,5 -1,4 -3,7 -6,10 -1,1 -3,2 -5,3 -1,0 -1,1 -2,1 -2,2 -2,7 1,11 2,5 7,8 12,12 -6,-1 -12,-3 -17,-8 -2,-2 -4,-5 -5,-9 -1,-3 -1,-8 2,-12 1,-1 3,-3 5,-4 1,-1 1,-1 2,-2 1,-1 2,-3 2,-5 0,-1 1,-2 1,-3 -1,0 -1,0 -1,-1l0 -2 -1 -8 -5 -34c-2,-12 -3,-23 -4,-35z"/>
      </g>
      <g>
       <g>
        <path class="fil9" d="M6728 5345c4,-7 10,-13 16,-17 6,-4 13,-6 21,-7 7,-1 15,-1 22,1 8,1 15,3 22,7l1 1c1,0 3,0 3,-1 3,-3 5,-7 7,-10 -4,2 -7,4 -11,6l4 0c-6,-7 -14,-12 -23,-15 -8,-2 -18,-3 -27,-2 -9,2 -18,6 -25,12 -7,7 -11,17 -10,25z"/>
       </g>
       <g>
        <path class="fil9" d="M6807 5323l3 -8 -8 4c-1,1 -2,3 -1,5 1,1 3,2 4,1 1,0 2,-1 2,-2z"/>
       </g>
      </g>
      <g>
       <g>
        <path class="fil9" d="M6645 5365c-6,-7 -11,-11 -18,-13 -6,-2 -12,-2 -19,-1 -6,1 -13,4 -19,7 -6,3 -12,8 -18,13l0 1c-1,1 -2,1 -3,0 -3,-3 -5,-5 -8,-8 4,1 7,2 11,3l-4 1c4,-8 10,-15 17,-20 7,-5 15,-9 23,-10 8,-1 17,1 24,5 7,5 12,13 14,22z"/>
       </g>
       <g>
        <path class="fil9" d="M6572 5365l-4 -7 7 1c2,1 3,2 3,4 -1,2 -2,4 -4,3 -1,0 -2,0 -2,-1z"/>
       </g>
      </g>
      <g>
       <path class="fil9" d="M6654 5458l114 -48c0,0 28,42 -16,68 -60,35 -98,-20 -98,-20z"/>
      </g>
      <path class="fil7" d="M6729 5456c13,-13 29,-20 47,-20 0,0 0,0 1,0 0,14 -5,29 -25,42 -14,8 -27,11 -38,11 2,-12 5,-23 15,-33z"/>
     </g>
     <path class="fil7" d="M6685 5146c-5,35 -35,62 -68,75 -96,37 -124,-24 -105,-115 43,-196 321,-158 393,-1 21,47 30,133 -28,137 -54,5 -150,-68 -192,-96z"/>
     <path class="fil7" d="M6913 5197c-6,88 3,177 29,262 -4,2 -9,4 -13,6 -44,-35 -72,-86 -86,-141 -13,-54 -12,-111 -4,-166l74 39z"/>
     <path class="fil10" d="M6957 5867c34,103 32,200 40,305 67,-35 -22,-252 -40,-305z"/>
     <path class="fil10" d="M6508 5949c19,-48 49,-93 90,-123 -9,-5 -16,-2 -24,3 -46,30 -83,74 -104,125 -28,69 -19,146 57,178 -13,-11 -25,-25 -31,-41 -8,-19 -8,-42 -6,-63 2,-26 9,-53 18,-79z"/>
     <path class="fil10" d="M6591 6325c54,-8 259,-66 299,-20 40,46 -36,63 -69,70 -31,7 -96,4 -127,-1 -23,-5 -91,-51 -103,-49z"/>
    </g>
    <g>
     <g>
      <polygon class="fil8" points="8457,8675 8327,8675 8327,6668 8457,6668 "/>
      <polygon class="fil10" points="8457,6902 8457,6668 8327,6668 8327,6902 "/>
     </g>
     <g>
      <polygon class="fil8" points="4447,8675 4316,8675 4316,6668 4447,6668 "/>
      <polygon class="fil10" points="4447,6902 4447,6668 4316,6668 4316,6902 "/>
     </g>
     <path class="fil9" d="M8446 6778l-4216 0c-7,0 -12,-5 -12,-12l0 -184c0,-7 5,-12 12,-12l4216 0c6,0 11,5 11,12l0 184c0,7 -5,12 -11,12z"/>
     <path class="fil8" d="M8663 6585l-4594 0c-7,0 -12,-5 -12,-12l0 -255c0,-6 5,-12 12,-12l4594 0c7,0 12,6 12,12l0 255c0,7 -5,12 -12,12z"/>
    </g>
    <g>
     <polygon class="fil9" points="5207,5712 5411,6308 6334,6308 6327,6277 5954,6266 5782,5712 "/>
     <path class="fil26" d="M5616 6001c6,24 -4,48 -23,53 -19,5 -40,-10 -46,-35 -6,-24 5,-48 24,-53 19,-5 39,10 45,35z"/>
    </g>
    <g>
     <path class="fil16" d="M4884 4781l-319 -11c-39,-1 -71,24 -72,56l-8 234c-1,32 30,59 68,60l43 2c-3,24 -14,48 -31,66 30,-3 60,-7 86,-20 19,-9 36,-25 44,-43l178 6c38,1 71,-24 72,-56l7 -234c1,-32 -29,-59 -68,-60z"/>
     <path class="fil19" d="M4638 4948c0,22 -19,39 -41,38 -21,-1 -38,-19 -38,-41 1,-22 19,-39 41,-38 22,1 39,19 38,41z"/>
     <path class="fil19" d="M4760 4952c-1,22 -19,39 -41,38 -22,-1 -39,-19 -38,-41 0,-22 19,-39 40,-38 22,1 39,19 39,41z"/>
     <path class="fil19" d="M4881 4956c-1,21 -19,39 -41,38 -22,-1 -39,-19 -38,-41 1,-22 19,-39 41,-38 21,1 39,19 38,41z"/>
    </g>
    <g>
     <path class="fil18" d="M7990 4894l319 -10c39,-1 71,24 72,56l8 234c1,32 -30,59 -68,60l-43 1c3,25 14,48 31,67 -29,-4 -60,-7 -86,-20 -19,-10 -36,-25 -44,-44l-178 6c-38,1 -71,-24 -72,-55l-7 -235c-1,-31 29,-58 68,-60z"/>
     <path class="fil19" d="M8236 5061c1,22 19,39 41,39 21,-1 39,-19 38,-41 -1,-22 -19,-39 -41,-38 -22,0 -39,19 -38,40z"/>
     <path class="fil19" d="M8115 5065c0,22 18,39 40,39 22,-1 39,-19 39,-41 -1,-22 -19,-39 -41,-38 -22,0 -39,19 -38,40z"/>
     <path class="fil19" d="M7993 5069c1,22 19,39 41,38 22,0 39,-18 38,-40 -1,-22 -19,-39 -41,-39 -21,1 -39,19 -38,41z"/>
    </g>
    <g>
     <path class="fil9" d="M8023 6301l-530 0c-38,0 -70,-32 -70,-70l0 -41c0,-39 32,-70 70,-70l530 0 0 181z"/>
     <path class="fil19" d="M8023 6282l-515 0c-22,0 -40,-18 -40,-40l0 -63c0,-22 18,-40 40,-40l515 0 0 143z"/>
     <polygon class="fil9" points="8023,6181 7519,6181 7519,6171 8023,6171 "/>
     <polygon class="fil9" points="8023,6220 7519,6220 7519,6210 8023,6210 "/>
     <polygon class="fil9" points="8023,6254 7519,6254 7519,6244 8023,6244 "/>
    </g>
    <g>
     <path class="fil18" d="M8071 5947l-530 0c-38,0 -70,-32 -70,-70l0 -41c0,-39 32,-70 70,-70l530 0 0 181z"/>
     <path class="fil19" d="M8071 5928l-515 0c-22,0 -40,-18 -40,-40l0 -63c0,-22 18,-40 40,-40l515 0 0 143z"/>
     <polygon class="fil9" points="8071,5827 7567,5827 7567,5817 8071,5817 "/>
     <polygon class="fil9" points="8071,5866 7567,5866 7567,5856 8071,5856 "/>
     <polygon class="fil9" points="8071,5900 7567,5900 7567,5890 8071,5890 "/>
    </g>
    <g>
     <path class="fil7" d="M7423 5943l530 0c39,0 70,31 70,70l0 41c0,38 -31,70 -70,70l-530 0 0 -181z"/>
     <path class="fil19" d="M7423 5962l516 0c22,0 40,17 40,39l0 63c0,22 -18,40 -40,40l-516 0 0 -142z"/>
     <polygon class="fil9" points="7423,6063 7927,6063 7927,6072 7423,6072 "/>
     <polygon class="fil9" points="7423,6024 7927,6024 7927,6033 7423,6033 "/>
     <polygon class="fil9" points="7423,5990 7927,5990 7927,5999 7423,5999 "/>
    </g>
    <g>
     <path class="fil7" d="M5992 4666c122,1 220,95 219,209 0,31 -8,61 -21,88l66 93 -122 -25c-39,31 -90,50 -145,49 -122,-1 -220,-94 -219,-208 1,-115 100,-207 222,-206z"/>
     <path class="fil19" d="M5877 4853c3,-34 33,-60 67,-57 20,1 37,13 48,29 12,-15 31,-23 51,-22 34,3 60,33 57,67 -3,44 -70,80 -103,106 -7,5 -18,5 -25,-2 -31,-32 -98,-69 -95,-121z"/>
    </g>
    <g>
     <path class="fil18" d="M4809 5863c13,-34 33,-64 47,-39 9,14 11,44 9,71 -2,27 -8,51 -15,74 -15,55 -63,249 -86,171 -22,-76 24,-223 45,-277z"/>
     <path class="fil18" d="M4758 6215c15,-159 -3,-320 -50,-436 -5,-11 -11,-22 -19,-17 -4,3 -8,12 -11,21 -11,37 -14,79 -14,119 -1,114 15,224 45,313l49 0z"/>
     <path class="fil27" d="M4737 5880c7,-39 22,-78 40,-64 11,9 19,35 21,60 3,26 2,52 -1,76 -5,60 -17,265 -53,207 -36,-57 -18,-217 -7,-279z"/>
     <path class="fil27" d="M4607 6001c-10,-35 -15,-78 6,-83 12,-2 29,10 43,27 13,18 23,39 32,59 21,50 100,217 45,205 -53,-13 -108,-151 -126,-208z"/>
     <path class="fil27" d="M4788 6215c29,-22 75,-100 94,-128 11,-18 22,-37 30,-60 8,-24 12,-52 7,-70 -8,-30 -34,-14 -54,9 -32,39 -108,149 -104,231 1,8 2,14 4,18l23 0z"/>
     <path class="fil9" d="M4868 6306c11,-24 17,-52 17,-81 0,-24 -4,-46 -11,-66l-227 0c-8,20 -12,42 -12,66 0,29 7,57 18,81l215 0z"/>
    </g>
   </g>
  </g>
 </g>
</svg>
